<svg width="400" height="49" viewBox="0 0 400 49" fill="none" xmlns="http://www.w3.org/2000/svg">
<path fill-rule="evenodd" clip-rule="evenodd" d="M212.077 5.73275C215.441 4.47136 219.851 3.80719 224.34 3.80719C228.83 3.80719 233.239 4.47136 236.603 5.73275C238.281 6.36211 239.753 7.15978 240.845 8.14852C241.937 9.13654 242.827 10.4923 242.827 12.1603C242.827 13.8283 241.937 15.1841 240.845 16.1721C239.753 17.1608 238.281 17.9585 236.603 18.5878C233.239 19.8492 228.83 20.5134 224.34 20.5134C219.851 20.5134 215.441 19.8492 212.077 18.5878C210.399 17.9585 208.927 17.1608 207.835 16.1721C206.744 15.1841 205.854 13.8283 205.854 12.1603C205.854 10.4923 206.744 9.13653 207.835 8.14852C208.927 7.15978 210.399 6.36211 212.077 5.73275ZM224.34 8.3531C220.229 8.3531 216.391 8.9701 213.673 9.98921C212.311 10.5001 211.408 11.0458 210.886 11.5185C210.632 11.7488 210.505 11.928 210.447 12.0378C210.418 12.0906 210.407 12.1249 210.403 12.1411L210.4 12.1569L210.399 12.1603L210.4 12.1637L210.403 12.1795C210.407 12.1957 210.418 12.23 210.447 12.2828C210.505 12.3926 210.632 12.5718 210.886 12.8021C211.408 13.2748 212.311 13.8205 213.673 14.3314C216.391 15.3505 220.229 15.9675 224.34 15.9675C228.451 15.9675 232.289 15.3505 235.007 14.3314C236.369 13.8205 237.272 13.2748 237.794 12.8021C238.049 12.5718 238.175 12.3926 238.234 12.2828C238.262 12.23 238.273 12.1957 238.277 12.1795L238.281 12.1637L238.281 12.1603L238.281 12.1569L238.277 12.1411C238.273 12.1249 238.262 12.0906 238.234 12.0378C238.175 11.928 238.049 11.7488 237.794 11.5185C237.272 11.0458 236.369 10.5001 235.007 9.98921C232.289 8.9701 228.451 8.3531 224.34 8.3531Z" fill="#F7DF1E"/>
<path fill-rule="evenodd" clip-rule="evenodd" d="M208.126 9.88733C209.382 9.88733 210.399 10.905 210.399 12.1603V24.3206L210.4 24.324L210.403 24.3398C210.407 24.356 210.418 24.3903 210.447 24.4431C210.505 24.5529 210.632 24.732 210.886 24.9624C211.408 25.4351 212.311 25.9808 213.673 26.4917C216.391 27.5108 220.229 28.1278 224.34 28.1278C228.451 28.1278 232.289 27.5108 235.007 26.4917C236.369 25.9808 237.272 25.4351 237.794 24.9624C238.049 24.732 238.175 24.5529 238.234 24.4431C238.262 24.3903 238.273 24.356 238.277 24.3398L238.281 24.324L238.281 24.3206V12.1603C238.281 10.905 239.299 9.88733 240.554 9.88733C241.809 9.88733 242.827 10.905 242.827 12.1603V24.3206C242.827 25.9886 241.937 27.3443 240.845 28.3324C239.753 29.3211 238.281 30.1188 236.603 30.7481C233.239 32.0095 228.83 32.6737 224.34 32.6737C219.851 32.6737 215.441 32.0095 212.077 30.7481C210.399 30.1188 208.927 29.3211 207.835 28.3324C206.744 27.3443 205.854 25.9886 205.854 24.3206V12.1603C205.854 10.905 206.871 9.88733 208.126 9.88733Z" fill="#F7DF1E"/>
<path fill-rule="evenodd" clip-rule="evenodd" d="M208.126 22.0477C209.382 22.0477 210.399 23.0653 210.399 24.3206V36.4809L210.4 36.4843L210.403 36.5001C210.407 36.5163 210.418 36.5506 210.447 36.6035C210.505 36.7132 210.632 36.8924 210.886 37.1227C211.408 37.5954 212.311 38.1411 213.673 38.652C216.391 39.6711 220.229 40.2881 224.34 40.2881C228.451 40.2881 232.289 39.6711 235.007 38.652C236.369 38.1411 237.272 37.5954 237.794 37.1227C238.049 36.8924 238.175 36.7132 238.234 36.6035C238.262 36.5506 238.273 36.5163 238.277 36.5001L238.281 36.4843L238.281 36.4809V24.3206C238.281 23.0653 239.299 22.0477 240.554 22.0477C241.809 22.0477 242.827 23.0653 242.827 24.3206V36.4809C242.827 38.149 241.937 39.5047 240.845 40.4927C239.753 41.4814 238.281 42.2791 236.603 42.9085C233.239 44.1699 228.83 44.834 224.34 44.834C219.851 44.834 215.441 44.1699 212.077 42.9085C210.399 42.2791 208.927 41.4814 207.835 40.4927C206.744 39.5047 205.854 38.149 205.854 36.4809V24.3206C205.854 23.0653 206.871 22.0477 208.126 22.0477Z" fill="#F7DF1E"/>
<path d="M375.943 43.0587V4.87305H400V10.5463H381.835V37.3854H400V43.0587H375.943ZM378.616 26.3116V20.6383H397V26.3116H378.616Z" fill="#F7DF1E"/>
<path d="M351.253 43.6043C348.489 43.6043 345.907 43.1134 343.507 42.1315C341.107 41.1132 338.997 39.713 337.179 37.931C335.361 36.149 333.942 34.0761 332.924 31.7122C331.942 29.312 331.451 26.7299 331.451 23.966C331.451 21.2385 331.942 18.6928 332.924 16.3289C333.942 13.965 335.342 11.9103 337.124 10.1646C338.943 8.38265 341.052 7.00069 343.452 6.01877C345.853 5.03686 348.435 4.5459 351.199 4.5459C353.126 4.5459 354.999 4.81865 356.817 5.36416C358.672 5.90967 360.345 6.67338 361.836 7.6553C363.327 8.63721 364.545 9.7646 365.491 11.0375L361.672 15.0197C360.581 13.965 359.454 13.0922 358.29 12.4012C357.163 11.7102 355.999 11.1829 354.799 10.8193C353.599 10.4556 352.399 10.2737 351.199 10.2737C349.235 10.2737 347.416 10.6192 345.744 11.3102C344.107 12.0012 342.652 12.9649 341.379 14.2014C340.143 15.4379 339.179 16.8926 338.488 18.5655C337.797 20.202 337.452 22.0022 337.452 23.966C337.452 25.8571 337.815 27.6573 338.543 29.3666C339.27 31.0395 340.27 32.5123 341.543 33.7852C342.852 35.058 344.343 36.0581 346.016 36.7855C347.726 37.5128 349.526 37.8765 351.417 37.8765C352.835 37.8765 354.181 37.6765 355.454 37.2764C356.726 36.84 357.854 36.24 358.836 35.4763C359.818 34.7125 360.581 33.8397 361.127 32.8578C361.672 31.8395 361.945 30.7667 361.945 29.6393V28.5483L362.763 29.312H351.09V23.4751H368C368.073 23.8751 368.128 24.2751 368.164 24.6752C368.2 25.0389 368.218 25.4025 368.218 25.7662C368.255 26.0935 368.273 26.4208 368.273 26.7481C368.273 29.2575 367.837 31.5486 366.964 33.6215C366.091 35.6581 364.873 37.4219 363.309 38.913C361.781 40.404 359.981 41.5678 357.908 42.4042C355.872 43.2043 353.653 43.6043 351.253 43.6043Z" fill="#F7DF1E"/>
<path d="M293.064 43.0587L307.848 4.87305H313.848L328.523 43.0587H322.249L313.521 20.0382C313.412 19.7836 313.194 19.1654 312.866 18.1835C312.575 17.2016 312.23 16.1105 311.83 14.9104C311.43 13.7103 311.066 12.6193 310.739 11.6374C310.412 10.6191 310.193 9.96446 310.084 9.67352L311.339 9.61898C311.121 10.2372 310.848 11.0191 310.521 11.9647C310.23 12.9102 309.903 13.9103 309.539 14.965C309.212 16.0196 308.884 17.0197 308.557 17.9653C308.23 18.8744 307.957 19.6382 307.739 20.2564L299.065 43.0587H293.064ZM299.611 33.5668L301.793 27.8935H319.14L321.649 33.5668H299.611Z" fill="#F7DF1E"/>
<path d="M259.117 43.0587V4.87305H275.373C277.555 4.87305 279.556 5.41856 281.374 6.50958C283.229 7.56423 284.702 9.01892 285.793 10.8736C286.884 12.692 287.429 14.7468 287.429 17.0379C287.429 19.1108 286.884 21.0383 285.793 22.8203C284.702 24.6023 283.247 26.0388 281.429 27.1298C279.61 28.1845 277.592 28.7118 275.373 28.7118H265.009V43.0587H259.117ZM281.81 43.0587L272.1 25.8206L278.155 24.4568L288.957 43.1132L281.81 43.0587ZM265.009 23.0385H275.919C276.974 23.0385 277.919 22.7839 278.756 22.2748C279.592 21.7293 280.247 21.0019 280.719 20.0927C281.192 19.1472 281.429 18.1107 281.429 16.9833C281.429 15.7105 281.119 14.6013 280.501 13.6557C279.919 12.6738 279.083 11.9101 277.992 11.3646C276.937 10.8191 275.737 10.5463 274.391 10.5463H265.009V23.0385Z" fill="#F7DF1E"/>
<path d="M177.128 43.2771V10.7647H166.436V5.09143H194.038V10.7647H183.019V43.2771H177.128Z" fill="#F7DF1E"/>
<path d="M147.614 43.8225C145.541 43.8225 143.614 43.5498 141.832 43.0043C140.086 42.4588 138.486 41.6405 137.031 40.5495C135.613 39.4221 134.34 38.0402 133.213 36.4036L137.25 31.7668C139.032 34.3125 140.741 36.0763 142.377 37.0582C144.014 38.0402 145.96 38.5311 148.214 38.5311C149.596 38.5311 150.851 38.3129 151.978 37.8765C153.106 37.4401 153.997 36.84 154.651 36.0763C155.306 35.3126 155.633 34.4398 155.633 33.4579C155.633 32.8033 155.524 32.185 155.306 31.6031C155.088 31.0213 154.742 30.4939 154.27 30.0212C153.833 29.5484 153.251 29.112 152.524 28.7119C151.833 28.3119 151.015 27.9664 150.069 27.6755C149.124 27.3482 148.033 27.0754 146.796 26.8572C144.832 26.4572 143.123 25.9299 141.668 25.2752C140.214 24.6206 138.995 23.8024 138.013 22.8205C137.031 21.8385 136.304 20.7293 135.831 19.4928C135.359 18.22 135.122 16.8017 135.122 15.2379C135.122 13.7104 135.449 12.2921 136.104 10.9829C136.795 9.67368 137.722 8.5463 138.886 7.60075C140.086 6.61883 141.486 5.8733 143.087 5.36416C144.687 4.81865 146.414 4.5459 148.269 4.5459C150.233 4.5459 152.033 4.80047 153.669 5.30961C155.306 5.81875 156.761 6.58247 158.034 7.60075C159.306 8.58267 160.361 9.80097 161.198 11.2557L157.052 15.347C156.324 14.1469 155.506 13.1468 154.597 12.3467C153.688 11.5102 152.688 10.892 151.597 10.4919C150.506 10.0555 149.342 9.83734 148.105 9.83734C146.687 9.83734 145.45 10.0555 144.396 10.4919C143.341 10.9284 142.505 11.5466 141.886 12.3467C141.305 13.1104 141.014 14.0196 141.014 15.0742C141.014 15.8379 141.159 16.5471 141.45 17.2017C141.741 17.82 142.177 18.3836 142.759 18.8928C143.378 19.3656 144.196 19.802 145.214 20.202C146.232 20.5657 147.451 20.893 148.869 21.1839C150.869 21.6203 152.651 22.184 154.215 22.875C155.779 23.5296 157.106 24.3115 158.197 25.2207C159.288 26.1299 160.106 27.1482 160.652 28.2755C161.234 29.4029 161.525 30.6212 161.525 31.9305C161.525 34.3671 160.961 36.4764 159.834 38.2584C158.706 40.0404 157.106 41.4223 155.033 42.4042C152.96 43.3498 150.487 43.8225 147.614 43.8225Z" fill="#F7DF1E"/>
<path d="M108.365 43.2771V37.822H114.529V10.5465H108.365V5.09143H126.585V10.5465H120.421V37.822H126.585V43.2771H108.365Z" fill="#F7DF1E"/>
<path d="M77.125 43.2771V5.09143H83.0165V37.6038H100.909V43.2771H77.125Z" fill="#F7DF1E"/>
<path d="M34.9473 43.2771L49.7306 5.09143H55.7312L70.4053 43.2771H64.132L55.4039 20.2566C55.2947 20.002 55.0765 19.3838 54.7492 18.4019C54.4583 17.4199 54.1128 16.3289 53.7128 15.1288C53.3127 13.9287 52.9491 12.8377 52.6218 11.8557C52.2944 10.8375 52.0762 10.1828 51.9671 9.89191L53.2218 9.83736C53.0036 10.4556 52.7309 11.2375 52.4036 12.183C52.1126 13.1286 51.7853 14.1287 51.4216 15.1833C51.0943 16.238 50.767 17.2381 50.4397 18.1836C50.1124 19.0928 49.8397 19.8565 49.6215 20.4748L40.9479 43.2771H34.9473ZM41.4934 33.7852L43.6754 28.1119H61.0226L63.5319 33.7852H41.4934Z" fill="#F7DF1E"/>
<path d="M15.2743 43.2771L0 5.09143H6.70976L15.8198 28.2756C16.2562 29.4029 16.638 30.4212 16.9653 31.3304C17.329 32.2396 17.6381 33.076 17.8927 33.8398C18.1473 34.5671 18.3837 35.2581 18.6019 35.9127C18.8201 36.5673 19.0383 37.2219 19.2565 37.8765L17.8381 37.9311C18.0927 37.0583 18.3655 36.1491 18.6564 35.2035C18.9473 34.258 19.2746 33.2215 19.6383 32.0941C20.0384 30.9667 20.5111 29.6939 21.0566 28.2756L29.512 5.09143H36.3855L21.0021 43.2771H15.2743Z" fill="#F7DF1E"/>
</svg>
